<svg width="47" height="47" viewBox="0 0 47 47" fill="none" xmlns="http://www.w3.org/2000/svg">
<g clip-path="url(#clip0_145_52)">
<path d="M40.5708 25.5758C41.1209 25.0251 41.4299 24.2785 41.4299 23.5C41.4299 22.7216 41.1209 21.975 40.5708 21.4242L29.4945 10.342C28.9435 9.79091 28.196 9.48132 27.4167 9.48132C26.6374 9.48132 25.89 9.79091 25.3389 10.342C24.7879 10.893 24.4783 11.6404 24.4783 12.4198C24.4783 13.1991 24.7879 13.9465 25.3389 14.4976L31.4019 20.5625L8.81256 20.5625C8.03349 20.5625 7.28632 20.872 6.73543 21.4229C6.18454 21.9738 5.87506 22.7209 5.87506 23.5C5.87506 24.2791 6.18454 25.0263 6.73543 25.5771C7.28632 26.128 8.03349 26.4375 8.81256 26.4375L31.4019 26.4375L25.3389 32.5005C25.0661 32.7734 24.8496 33.0973 24.702 33.4538C24.5543 33.8103 24.4783 34.1924 24.4783 34.5783C24.4783 34.9642 24.5543 35.3463 24.702 35.7028C24.8496 36.0593 25.0661 36.3832 25.3389 36.6561C25.6118 36.929 25.9357 37.1454 26.2922 37.2931C26.6487 37.4407 27.0308 37.5167 27.4167 37.5167C27.8026 37.5167 28.1847 37.4407 28.5412 37.2931C28.8977 37.1454 29.2217 36.929 29.4945 36.6561L40.5708 25.5758Z" fill="black"/>
</g>
<defs>
<clipPath id="clip0_145_52">
<rect width="47" height="47" fill="white" transform="matrix(0 1 -1 0 47 0)"/>
</clipPath>
</defs>
</svg>
