<svg width="47" height="47" viewBox="0 0 47 47" fill="none" xmlns="http://www.w3.org/2000/svg">
<g clip-path="url(#clip0_145_48)">
<path d="M6.42915 21.4242C5.87905 21.9749 5.57007 22.7215 5.57007 23.5C5.57007 24.2784 5.87905 25.025 6.42915 25.5758L17.5055 36.658C18.0565 37.2091 18.804 37.5187 19.5833 37.5187C20.3626 37.5187 21.11 37.2091 21.6611 36.658C22.2121 36.107 22.5217 35.3596 22.5217 34.5802C22.5217 33.8009 22.2121 33.0535 21.6611 32.5024L15.5981 26.4375H38.1874C38.9665 26.4375 39.7137 26.128 40.2646 25.5771C40.8155 25.0262 41.1249 24.2791 41.1249 23.5C41.1249 22.7209 40.8155 21.9737 40.2646 21.4229C39.7137 20.872 38.9665 20.5625 38.1874 20.5625L15.5981 20.5625L21.6611 14.4995C21.9339 14.2266 22.1504 13.9027 22.298 13.5462C22.4457 13.1897 22.5217 12.8076 22.5217 12.4217C22.5217 12.0358 22.4457 11.6537 22.298 11.2972C22.1504 10.9407 21.9339 10.6168 21.6611 10.3439C21.3882 10.071 21.0643 9.8546 20.7078 9.70693C20.3513 9.55926 19.9692 9.48325 19.5833 9.48325C19.1974 9.48325 18.8153 9.55926 18.4588 9.70693C18.1023 9.8546 17.7783 10.071 17.5055 10.3439L6.42915 21.4242Z" fill="black"/>
</g>
<defs>
<clipPath id="clip0_145_48">
<rect width="47" height="47" fill="white" transform="matrix(0 -1 1 0 0 47)"/>
</clipPath>
</defs>
</svg>
