<svg width="303" height="247" viewBox="0 0 303 247" fill="none" xmlns="http://www.w3.org/2000/svg">
<path d="M105.776 51L146.776 8" stroke="#011F2C" stroke-width="2"/>
<path d="M108.776 53L148.776 11" stroke="#011F2C" stroke-width="2"/>
<path d="M122.276 109L104.276 62.5M126.276 109L107.776 61.5" stroke="#011F2C" stroke-width="2"/>
<circle cx="104.776" cy="56.5" r="6.5" fill="#006E69"/>
<circle cx="104.776" cy="56.5" r="4" fill="#013348"/>
<path d="M152.276 11L162.276 23.5" stroke="#011F2C" stroke-width="2"/>
<path d="M155.776 9L164.776 20.5" stroke="#011F2C" stroke-width="2"/>
<path fill-rule="evenodd" clip-rule="evenodd" d="M98.2755 131.5H151.776V127C151.609 126 150.815 123.5 148.776 123.5L142.276 123.5L107.776 123.5L101.276 123.5C100.442 123.667 98.7755 124 98.2755 125.5V131.5Z" fill="#7A8608"/>
<path fill-rule="evenodd" clip-rule="evenodd" d="M98.2755 131.5H151.776V127C151.609 126 150.815 123.5 148.776 123.5L142.276 123.5L107.776 123.5L101.276 123.5C100.442 123.667 98.7755 124 98.2755 125.5V131.5Z" fill="#004B47"/>
<path d="M107.776 115V123.5L142.276 123.5C142.109 121.333 142.276 116.5 142.276 116.5C142.276 116.5 141.776 109.5 137.276 109H113.776C110.776 109 107.776 113.667 107.776 115Z" fill="#7A8608"/>
<path d="M107.776 115V123.5L142.276 123.5C142.109 121.333 142.276 116.5 142.276 116.5C142.276 116.5 141.776 109.5 137.276 109H113.776C110.776 109 107.776 113.667 107.776 115Z" fill="#006E69"/>
<path d="M141.276 245.5H146.776L147.276 153H60.7755V245.5H66.2755V216.5H108.776V245.5H114.276V216.5H141.276V245.5Z" fill="#7A8608"/>
<circle cx="151.276" cy="6.5" r="6.5" fill="#006E69"/>
<circle cx="151.276" cy="6.5" r="4" fill="#013348"/>
<path d="M36.7755 204C36.9422 188.167 34.4755 153.5 23.2755 141.5" stroke="#77AC54"/>
<path d="M60.7755 153H147.276V131.5H58.2755C55.7755 131.5 49.7755 136.5 49.7755 142C49.7755 148.576 56.2755 153 60.7755 153Z" fill="#98A70D"/>
<path d="M64.7755 188C64.7755 187.448 65.2232 187 65.7755 187H140.775C141.328 187 141.775 187.448 141.775 188V211C141.775 211.552 141.328 212 140.775 212H65.7755C65.2232 212 64.7755 211.552 64.7755 211V188Z" fill="#98A70D"/>
<path d="M64.7755 160C64.7755 159.448 65.2232 159 65.7755 159H140.775C141.328 159 141.775 159.448 141.775 160V183C141.775 183.552 141.328 184 140.775 184H65.7755C65.2232 184 64.7755 183.552 64.7755 183V160Z" fill="#98A70D"/>
<path d="M115.776 192.5H90.2755C90.2755 192.5 88.7755 193.369 88.7755 194.5C88.7755 195.5 89.4422 196.167 90.2755 196.5H115.776C115.776 196.5 117.276 195.5 117.276 194.5C117.276 193.5 115.776 192.5 115.776 192.5Z" fill="#7A8608"/>
<path d="M115.776 164H90.2755C90.2755 164 88.7755 164.869 88.7755 166C88.7755 167 89.4422 167.667 90.2755 168H115.776C115.776 168 117.276 167 117.276 166C117.276 165 115.776 164 115.776 164Z" fill="#7A8608"/>
<path d="M144.776 131.5H191.776C196.176 131.9 199.442 137.167 200.276 139.5V217H152.776V245.5H146.776V153C143.776 152 136.276 150 136.276 142C136.276 133.369 141.442 132.833 144.776 131.5Z" fill="#565E07"/>
<path d="M114.276 216.5H120.276V245.5H114.276V216.5Z" fill="#565E07"/>
<path d="M66.2755 216.5H71.7755V245.5H66.2755V216.5Z" fill="#565E07"/>
<path d="M198.776 183V142.448C201.656 141.637 205.976 142.11 207.776 142.448V183H198.776Z" fill="#292D00"/>
<path d="M190.776 183V138.492C193.336 137.601 197.176 138.121 198.776 138.492V183H190.776Z" fill="#011F2C"/>
<path d="M181.776 183V151.35C184.656 150.717 188.976 151.086 190.776 151.35V183H181.776Z" fill="#FFF6B3"/>
<path d="M198.776 145C199.703 145 201.267 144 202.976 144C204.584 144 206.321 145 207.776 145" stroke="#FFFAD7" stroke-width="2" stroke-linejoin="round"/>
<path d="M190.776 141C191.6 141 192.99 140 194.509 140C195.939 140 197.482 141 198.776 141" stroke="#005652" stroke-width="2" stroke-linejoin="round"/>
<path d="M181.776 154.5C182.703 154.5 184.567 154 186.276 154C187.884 154 189.321 154.5 190.776 154.5" stroke="#011F2C" stroke-width="2" stroke-linejoin="round"/>
<path d="M190.776 178C192.187 178 193.059 178.955 194.54 178.998C196.204 179.047 196.893 178 198.776 178" stroke="#005652" stroke-width="1.7" stroke-linejoin="round"/>
<path d="M181.776 177.5C183.364 177.5 184.344 178.455 186.011 178.498C187.883 178.547 188.658 177.5 190.776 177.5" stroke="#011F2C" stroke-width="2" stroke-linejoin="round"/>
<path d="M190.776 180C192.187 180 193.059 180.955 194.54 180.998C196.204 181.047 196.893 180 198.776 180" stroke="#005652" stroke-linejoin="round"/>
<path d="M181.776 179.5C183.364 179.5 184.344 180.455 186.011 180.498C187.883 180.547 188.658 179.5 190.776 179.5" stroke="#011F2C" stroke-linejoin="round"/>
<circle cx="186.276" cy="158.5" r="1.5" fill="#011F2C"/>
<path d="M207.776 183V152.339C210.656 151.725 214.976 152.083 216.776 152.339V183H207.776Z" fill="#808C0B"/>
<path d="M216.776 183V146.404C219.976 145.672 224.776 146.099 226.776 146.404V183H216.776Z" fill="#565E07"/>
<path d="M207.776 155C209.893 155 210.668 153.953 212.54 154.002C214.207 154.045 215.187 155 216.776 155" stroke="#011F2C" stroke-linejoin="round"/>
<path d="M207.776 157C209.893 157 210.668 155.953 212.54 156.002C214.207 156.045 215.187 157 216.776 157" stroke="#011F2C" stroke-width="2" stroke-linejoin="round"/>
<path d="M216.776 180C218.54 180 219.924 180.457 221.776 180.5C223.856 180.548 224.423 180 226.776 180" stroke="#006E69" stroke-linejoin="round"/>
<path d="M216.776 177.998C218.54 177.998 219.63 177.955 221.481 177.998C223.561 178.047 224.423 178 226.776 178" stroke="#006E69" stroke-width="2" stroke-linejoin="round"/>
<path d="M212.276 174C212.276 172.235 212.276 171.146 212.276 169.294C212.276 167.214 212.276 166.353 212.276 164" stroke="#011F2C" stroke-width="9" stroke-linejoin="round"/>
<path d="M216.776 153.111V151.778C217.828 150.444 220.723 150 221.776 150C222.776 150 225.547 150.741 226.776 151.333V153.111C226.249 153.259 223.46 154 221.776 154C220.091 154 217.477 153.407 216.776 153.111Z" fill="#006E69"/>
<path d="M192.276 166L172.276 68L205.776 42L302.776 105.5C302.776 105.5 288.121 142.453 272.276 155.5C256.679 168.342 192.276 166 192.276 166Z" fill="url(#paint0_linear_242_108)" fill-opacity="0.26"/>
<path d="M179.306 193C178.918 193 178.337 185.143 179.306 182H227.293C229.62 183.676 228.747 190.032 227.778 193H179.306Z" fill="#005652"/>
<path d="M177.348 203.5C176.93 203.5 176.301 195.643 177.349 192.5H229.174C231.687 194.176 230.745 200.532 229.698 203.5H177.348Z" fill="#011F2C"/>
<path d="M183 193H180.698C179.777 194.048 179.931 200.508 180.238 204H183C182.54 202.429 182.54 196.143 183 193Z" fill="#014663" stroke="#014663"/>
<path d="M185.034 182H182.534C181.534 183 181.7 189.167 182.034 192.5H185.034C184.534 191 184.534 185 185.034 182Z" fill="#006E69"/>
<path d="M225.776 192.5C225.776 194.5 226.892 196.347 226.766 198.5C226.649 200.488 225.776 201.5 225.776 203.5" stroke="#014663"/>
<path d="M228.267 192.5C228.267 194.5 228.884 196.347 228.759 198.5C228.643 200.488 227.776 201.5 227.776 203.5" stroke="#014663"/>
<path d="M174.776 226V216.455L229.837 216C229.837 216 233.946 218.993 233.77 221.455C233.622 223.521 230.399 226 230.399 226H174.776Z" fill="#FFFAD7"/>
<path d="M173.776 216H229.887C231.738 216.758 233.776 219.015 233.776 221.455C233.776 223.727 230.442 226 230.442 226H174.331" stroke="#808C0B"/>
<path d="M217.333 217.918C217.388 217.918 217.433 217.873 217.433 217.818C217.433 217.763 217.388 217.718 217.333 217.718V217.818V217.918ZM179.887 217.818V217.918H217.333V217.818V217.718H179.887V217.818Z" fill="#878048"/>
<path d="M227.889 222.009C227.944 222.009 227.989 221.964 227.989 221.909C227.989 221.854 227.944 221.809 227.889 221.809V221.909V222.009ZM190.442 221.909V222.009H227.889V221.909V221.809H190.442V221.909Z" fill="#878048"/>
<path d="M215.666 223.827C215.722 223.827 215.766 223.783 215.766 223.727C215.766 223.672 215.722 223.627 215.666 223.627V223.727V223.827ZM178.22 223.727V223.827H215.666V223.727V223.627H178.22V223.727Z" fill="#878048"/>
<path d="M216.777 220.191C216.833 220.191 216.877 220.146 216.877 220.091C216.877 220.036 216.833 219.991 216.777 219.991V220.091V220.191ZM179.331 220.091V220.191H216.777V220.091V219.991H179.331V220.091Z" fill="#878048"/>
<path d="M178.331 215V204.5L229.141 204C229.141 204 232.933 207.292 232.77 210C232.634 212.273 229.66 215 229.66 215H178.331Z" fill="#FFFAD7"/>
<path d="M176.776 204H229.141C230.869 204.833 232.77 207.317 232.77 210C232.77 212.5 229.66 215 229.66 215H177.294" stroke="#292D00"/>
<path d="M217.425 206.1C217.481 206.1 217.525 206.055 217.525 206C217.525 205.945 217.481 205.9 217.425 205.9V206V206.1ZM182.479 206V206.1H217.425V206V205.9H182.479V206Z" fill="#878048"/>
<path d="M227.276 210.6C227.332 210.6 227.376 210.555 227.376 210.5C227.376 210.445 227.332 210.4 227.276 210.4V210.5V210.6ZM192.33 210.5V210.6H227.276V210.5V210.4H192.33V210.5Z" fill="#878048"/>
<path d="M215.87 212.6C215.925 212.6 215.97 212.555 215.97 212.5C215.97 212.445 215.925 212.4 215.87 212.4V212.5V212.6ZM180.923 212.5V212.6H215.87V212.5V212.4H180.923V212.5Z" fill="#878048"/>
<path d="M216.907 208.6C216.962 208.6 217.007 208.555 217.007 208.5C217.007 208.445 216.962 208.4 216.907 208.4V208.5V208.6ZM181.96 208.5V208.6H216.907V208.5V208.4H181.96V208.5Z" fill="#878048"/>
<path d="M200.776 245.406V237.094H235.276V245.406H200.776Z" fill="#FFFAD7"/>
<path d="M170.775 236.5H235.775V237H219.276H203.276C202.776 237.594 201.776 239.906 201.776 241.25C201.776 242.438 203.276 244.906 203.776 245.5H235.775V246H170.775C169.775 245.208 167.675 243.15 167.275 241.25C166.875 239.35 169.442 237.292 170.775 236.5Z" fill="#011F2C" stroke="#011F2C" stroke-linecap="round"/>
<path d="M204.782 239.469H227.4" stroke="#878048" stroke-width="0.2" stroke-linecap="round"/>
<path d="M211.158 241.466H233.776" stroke="#878048" stroke-width="0.2" stroke-linecap="round"/>
<path d="M203.776 243.409H226.393" stroke="#878048" stroke-width="0.2" stroke-linecap="round"/>
<path d="M206.276 41.9999C199.874 59.1994 180.276 66.4999 172.276 67.9999C170.776 68.4999 181.452 53.0417 186.776 48.9999C196.505 41.6133 206.396 41.6768 206.276 41.9999Z" fill="#94995D"/>
<path d="M192.275 44.5002C189.075 44.9002 183.275 53.3336 180.775 57.5002C179.109 56.6669 176.975 55.6002 181.775 58.0002C186.575 60.4002 190.109 57 192.275 54.5C195.275 51.0383 195.475 44.1002 192.275 44.5002Z" fill="#D9D9D9"/>
<path d="M192.275 44.5002C189.075 44.9002 183.275 53.3336 180.775 57.5002C179.109 56.6669 176.975 55.6002 181.775 58.0002C186.575 60.4002 190.109 57 192.275 54.5C195.275 51.0383 195.475 44.1002 192.275 44.5002Z" fill="#EEB600"/>
<path d="M172.276 67.5L165.276 32.5L177.276 27L206.276 42C193.876 42.8 178.442 59.3333 172.276 67.5Z" fill="#006E69"/>
<circle cx="168.776" cy="28" r="9" fill="#005652"/>
<path d="M171.776 235.5V227.386L234.303 227C234.303 227 238.969 229.544 238.769 231.636C238.602 233.393 234.941 235.5 234.941 235.5H171.776Z" fill="#FFFAD7"/>
<path d="M171.776 235.5V227.386L234.303 227C234.303 227 238.969 229.544 238.769 231.636C238.602 233.393 234.941 235.5 234.941 235.5H171.776Z" fill="#FFFAD7"/>
<path d="M170.776 227H234.368C236.467 227.644 238.776 229.563 238.776 231.636C238.776 233.568 234.998 235.5 234.998 235.5H171.405" stroke="#014663"/>
<path d="M220.141 228.645C220.196 228.645 220.241 228.601 220.241 228.545C220.241 228.49 220.196 228.445 220.141 228.445V228.545V228.645ZM177.701 228.545V228.645H220.141V228.545V228.445H177.701V228.545Z" fill="#878048"/>
<path d="M232.103 232.123C232.159 232.123 232.203 232.078 232.203 232.023C232.203 231.967 232.159 231.923 232.103 231.923V232.023V232.123ZM189.664 232.023V232.123H232.103V232.023V231.923H189.664V232.023Z" fill="#878048"/>
<path d="M218.252 233.668C218.307 233.668 218.352 233.623 218.352 233.568C218.352 233.513 218.307 233.468 218.252 233.468V233.568V233.668ZM175.813 233.568V233.668H218.252V233.568V233.468H175.813V233.568Z" fill="#878048"/>
<path d="M219.511 230.577C219.566 230.577 219.611 230.533 219.611 230.477C219.611 230.422 219.566 230.377 219.511 230.377V230.477V230.577ZM177.072 230.477V230.577H219.511V230.477V230.377H177.072V230.477Z" fill="#878048"/>
<path d="M32.2755 136.5C31.2756 140.5 32.1089 154 32.7756 160C33.4422 159.167 36.2756 154.5 38.2756 149.5C40.3394 144.341 42.7756 135 42.7756 131V115.5C34.7756 123.5 33.1991 132.806 32.2755 136.5Z" fill="#77AC54"/>
<path d="M25.2755 130C24.0755 133.2 25.1089 140.333 25.7755 143.5L27.7756 141.5C28.9756 140.3 29.9422 133.333 30.2756 130L30.7756 115C29.2756 116.5 26.7755 126 25.2755 130Z" fill="#77AC54"/>
<path d="M36.7756 187.041C37.8806 187.626 39.2549 189.293 41.7756 190.041C45.7756 191.041 49.4687 190.16 49.2755 190.041C42.7756 186.041 42.2756 187.541 36.7756 187.041Z" fill="#77AC54"/>
<path d="M45.1039 184.89C42.2157 185.853 39.1039 185.557 36.6039 185.39C37.2456 184.107 40.1479 182.07 43.6039 180.89C48.2273 179.312 53.6039 178.818 53.6039 179.39C53.6039 180.39 46.6039 184.39 45.1039 184.89Z" fill="#77AC54"/>
<path d="M36.2756 181.5C39.7756 183 53.8186 169.009 56.2756 160C57.3208 156.167 50.3393 161.684 43.7756 170C40.9201 173.618 38.5492 177.559 36.2756 181.5Z" fill="#77AC54"/>
<path d="M40.1481 157.346C38.6481 158.846 35.6481 166.18 34.6481 169.846C44.6481 165.846 51.1481 152.846 51.6481 146.346C48.1481 148.346 41.7973 155.697 40.1481 157.346Z" fill="#77AC54"/>
<path d="M16.4867 141.036C19.084 142.629 25.5645 150.08 28.2839 153.537C27.4939 153.432 23.5586 152.395 19.9048 150.774C16.1343 149.101 10.0144 145.432 7.9602 143.346L1.71661e-05 135.263C8.45282 135.49 14.088 139.565 16.4867 141.036Z" fill="#77AC54"/>
<path d="M19.0743 127.97C21.1247 130.704 22.1365 137.84 22.386 141.067L19.9048 139.709C18.416 138.894 15.5316 132.479 14.2755 129.374L9.58272 115.118C11.4436 116.136 16.5112 124.552 19.0743 127.97Z" fill="#77AC54"/>
<path d="M35.3328 187.24C34.7338 188.337 34.5066 190.485 32.8169 192.5C30.032 195.54 26.4654 196.842 26.561 196.637C29.7765 189.715 31.0209 190.69 35.3328 187.24Z" fill="#77AC54"/>
<path d="M27.5145 189.664C30.4547 188.874 32.887 186.911 34.8804 185.393C33.6373 184.676 30.0928 184.578 26.5594 185.5C21.8325 186.734 17.0751 189.287 17.3908 189.765C17.9423 190.599 25.9875 190.074 27.5145 189.664Z" fill="#77AC54"/>
<path d="M32.8169 172.402C30.7248 175.584 14.2941 172.659 7.27551 166.5C4.28961 163.88 10.156 163.63 20.2179 166.947C24.5951 168.389 28.7467 170.369 32.8169 172.402Z" fill="#77AC54"/>
<path d="M19.0743 156C21.1528 156.424 27.7001 160.886 30.5566 163.393C20.0091 165.572 7.4168 158.314 3.41451 153.168C7.4371 152.905 16.7889 155.534 19.0743 156Z" fill="#77AC54"/>
<path d="M34.6481 180.149C32.556 183.331 19.2941 183.918 12.2755 177.759C9.28963 175.138 4.27559 173.259 21.7755 176.759C26.5594 177.715 30.5779 178.116 34.6481 180.149Z" fill="#77AC54"/>
<path d="M55.2755 212H17.2755L21.7755 245.5H50.5251L55.2755 212Z" fill="#011F2C"/>
<path d="M54.7755 203.5H17.2755C16.6088 204.5 15.2755 207 15.2755 209C15.2755 211 16.6088 211.833 17.2755 212H55.2755C55.6088 211.833 56.3755 210.8 56.7755 208C57.1755 205.2 55.6088 203.833 54.7755 203.5Z" fill="#005652"/>
<defs>
<linearGradient id="paint0_linear_242_108" x1="192.276" y1="56.5" x2="270.276" y2="156.5" gradientUnits="userSpaceOnUse">
<stop stop-color="#F6DB6E"/>
<stop offset="0.711538" stop-color="#F6DB6E" stop-opacity="0"/>
</linearGradient>
</defs>
</svg>
